HIERARCHY
ROOT hip
{
	OFFSET 0.000000 0.000000 0.000000 
	CHANNELS 6 Xposition Yposition Zposition Xrotation Zrotation Yrotation
	JOINT abdomen
	{
		OFFSET 0.000000 3.402643 0.000000 
		CHANNELS 3 Xrotation Zrotation Yrotation
		JOINT chest
		{
			OFFSET 0.000000 8.438565 -0.680529 
			CHANNELS 3 Xrotation Zrotation Yrotation
			JOINT neck
			{
				OFFSET 0.000000 10.207942 -0.272212 
				CHANNELS 3 Xrotation Zrotation Yrotation
				JOINT head
				{
					OFFSET 0.000000 3.130431 0.000000 
					CHANNELS 3 Xrotation Zrotation Yrotation
					End Site
					{
						OFFSET 0.000000 3.130435 0.000000 
					}
				}
			}
			JOINT lCollar
			{
				OFFSET 3.470700 6.669187 -0.816635 
				CHANNELS 3 Yrotation Zrotation Xrotation
				JOINT lShldr
				{
					OFFSET 3.198488 0.000000 0.000000 
					CHANNELS 3 Zrotation Yrotation Xrotation
					JOINT lForeArm
					{
						OFFSET 10.139888 0.000000 0.000000 
						CHANNELS 3 Yrotation Zrotation Xrotation
						JOINT lHand
						{
							OFFSET 8.370511 0.000000 0.000000 
							CHANNELS 3 Zrotation Yrotation Xrotation
							End Site
							{
								OFFSET 4.083176 0.000000 0.000000 
							}
						}
					}
				}
			}
			JOINT rCollar
			{
				OFFSET -3.470700 6.669187 -0.816635 
				CHANNELS 3 Yrotation Zrotation Xrotation
				JOINT rShldr
				{
					OFFSET -3.198488 0.000000 0.000000 
					CHANNELS 3 Zrotation Yrotation Xrotation
					JOINT rForeArm
					{
						OFFSET -10.139888 0.000000 0.000000 
						CHANNELS 3 Yrotation Zrotation Xrotation
						JOINT rHand
						{
							OFFSET -8.370511 0.000000 0.000000 
							CHANNELS 3 Zrotation Yrotation Xrotation
							End Site
							{
								OFFSET -4.083176 0.000000 0.000000 
							}
						}
					}
				}
			}
		}
	}
	JOINT lThigh
	{
		OFFSET 5.308129 -1.633274 1.361059 
		CHANNELS 3 Xrotation Zrotation Yrotation
		JOINT lShin
		{
			OFFSET -2.041588 -20.007561 0.000000 
			CHANNELS 3 Xrotation Zrotation Yrotation
			JOINT lFoot
			{
				OFFSET 0.000000 -19.190928 -1.224953 
				CHANNELS 3 Xrotation Yrotation Zrotation
				End Site
				{
					OFFSET 0.000000 -2.449906 4.627600 
				}
			}
		}
	}
	JOINT rThigh
	{
		OFFSET -5.308129 -1.633274 1.361059 
		CHANNELS 3 Xrotation Zrotation Yrotation
		JOINT rShin
		{
			OFFSET 2.041588 -20.007561 0.000000 
			CHANNELS 3 Xrotation Zrotation Yrotation
			JOINT rFoot
			{
				OFFSET 0.000000 -19.190928 -1.224953 
				CHANNELS 3 Xrotation Yrotation Zrotation
				End Site
				{
					OFFSET 0.000000 -2.449906 4.627600 
				}
			}
		}
	}
}
MOTION
Frames: 13
Frame Time: 0.083333
1.002559 40.201973 -0.930391 0.000000 0.000000 0.000000 12.100996 6.050498 0.000000 1.008417 3.025249 0.000000 18.955889 6.092118 0.000000 -32.060745 4.245046 0.099805 2.021920 -12.913460 -0.063351 -73.655464 -52.095982 11.210612 -99.348267 -66.648804 -75.852303 5.939527 -0.173112 -46.833431 -2.031252 7.879141 -0.068360 89.898712 72.021423 7.986648 150.491287 30.334816 -5.850946 -73.265656 0.173112 0.175734 -19.744637 3.092891 0.572472 37.550182 -4.097017 -3.026582 -18.047445 1.343247 1.707439 -19.948191 -6.796838 0.419719 37.797325 4.040080 2.853555 -18.166439 -1.455029 1.759614 
1.005880 40.205116 -0.929776 0.000000 0.000000 0.000000 12.183942 6.091971 0.000000 1.015329 3.045985 0.000000 18.924746 5.364294 0.000000 -32.092876 4.341934 0.180078 2.021921 -13.096734 -0.063351 -73.674438 -52.197006 11.185171 -99.263283 -66.583015 -75.852303 5.915505 -0.173112 -46.840752 -2.031255 8.041343 -0.068361 89.740227 72.051460 7.985308 150.491577 30.341352 -5.851954 -77.561813 0.173112 0.175734 -19.696648 3.084265 0.571283 37.442406 -4.097444 -3.008321 -17.988600 1.344403 1.706917 -19.894188 -6.804252 0.421853 37.766792 4.059406 2.837988 -18.177452 -1.439314 1.761968 
1.008532 40.207390 -0.929538 0.000000 0.000000 0.000000 12.250164 6.125082 0.000000 1.020847 3.062541 0.000000 18.905390 4.802495 0.000000 -32.098980 4.444156 0.242330 2.021922 -13.243053 -0.063351 -73.693413 -52.316746 11.159730 -99.249084 -66.566772 -75.852303 5.896784 -0.173112 -46.846458 -2.031257 8.170838 -0.068362 89.613708 72.082695 7.984240 150.491867 30.354010 -5.852758 -81.857964 0.173112 0.175734 -19.638386 3.078361 0.569293 37.392666 -4.107718 -2.997922 -17.999796 1.324846 1.713694 -19.841513 -6.804855 0.412141 37.639957 4.053599 2.816186 -18.110031 -1.424089 1.765294 
1.010567 40.208874 -0.929637 0.000000 0.000000 0.000000 12.300987 6.150494 0.000000 1.025083 3.075247 0.000000 18.896639 4.392687 0.000000 -32.081638 4.549644 0.288072 2.021923 -13.355349 -0.063351 -73.712387 -52.447674 11.134289 -99.294113 -66.595421 -75.852303 5.882751 -0.173112 -46.850723 -2.031259 8.270223 -0.068363 89.516624 72.114830 7.983420 150.492157 30.372084 -5.853375 -77.381737 0.173112 0.175734 -19.638979 3.074491 0.569250 37.403080 -4.101413 -2.996720 -17.999388 1.330570 1.714601 -19.849186 -6.812822 0.413216 37.659000 4.060253 2.819884 -18.120216 -1.418991 1.775757 
1.012039 40.209656 -0.930031 0.000000 0.000000 0.000000 12.337740 6.168870 0.000000 1.028145 3.084435 0.000000 18.897312 4.120841 0.000000 -32.043434 4.656333 0.318816 2.021924 -13.436552 -0.063351 -73.731361 -52.582268 11.108848 -99.386803 -66.664307 -75.852303 5.872830 -0.173112 -46.853729 -2.031261 8.342090 -0.068363 89.446442 72.147583 7.982830 150.492447 30.394880 -5.853823 -72.905518 0.173112 0.175734 -19.649149 3.072490 0.569954 37.422733 -4.101367 -2.998287 -18.008608 1.338547 1.715985 -19.858456 -6.815967 0.413507 37.678440 4.058759 2.830679 -18.129459 -1.426289 1.764694 
1.013000 40.209824 -0.930678 0.000000 0.000000 0.000000 12.361746 6.180873 0.000000 1.030146 3.090436 0.000000 18.906221 3.972920 0.000000 -31.986944 4.762157 0.336075 2.021924 -13.489593 -0.063351 -73.750336 -52.712990 11.083406 -99.515602 -66.768799 -75.852303 5.866476 -0.173112 -46.855656 -2.031262 8.389030 -0.068363 89.400597 72.180641 7.982443 150.492737 30.421692 -5.854115 -68.429291 0.173112 0.175734 -19.649292 3.071561 0.570069 37.422363 -4.101637 -3.008067 -18.008158 1.344808 1.726747 -19.906706 -6.825974 0.414089 37.716911 4.067855 2.836741 -18.119793 -1.424552 1.765100 
1.013505 40.209454 -0.931537 0.000000 0.000000 0.000000 12.374334 6.187167 0.000000 1.031195 3.093584 0.000000 18.922190 3.934895 0.000000 -31.914766 4.865050 0.341359 2.021925 -13.517403 -0.063351 -73.769310 -52.832310 11.057965 -99.664841 -66.899086 -75.852303 5.863174 -0.173112 -46.856659 -2.031263 8.413642 -0.068363 89.376579 72.213737 7.982242 150.493027 30.451822 -5.854268 -72.400681 0.173112 0.175734 -19.658360 3.076721 0.569883 37.431515 -4.112633 -3.001946 -17.999447 1.329733 1.724237 -19.906534 -6.826496 0.414169 37.716599 4.075054 2.829346 -18.120955 -1.409166 1.767576 
1.013605 40.208633 -0.932566 0.000000 0.000000 0.000000 12.376830 6.188415 0.000000 1.031403 3.094208 0.000000 18.944035 3.992731 0.000000 -31.829481 4.962945 0.336180 2.021926 -13.522912 -0.063351 -73.788284 -52.932701 11.032524 -99.802505 -67.024727 -75.852303 5.862443 -0.173112 -46.856884 -2.031264 8.418517 -0.068363 89.371841 72.246574 7.982203 150.493317 30.484570 -5.854298 -76.372070 0.173112 0.175734 -19.657982 3.079172 0.570101 37.421658 -4.112985 -3.001266 -17.999413 1.330191 1.724310 -19.856270 -6.822533 0.414528 37.677635 4.071320 2.824993 -18.129929 -1.420102 1.765692 
1.013353 40.207447 -0.933725 0.000000 0.000000 0.000000 12.370558 6.185279 0.000000 1.030880 3.092639 0.000000 18.970572 4.132397 0.000000 -31.733673 5.053777 0.322049 2.021926 -13.509050 -0.063351 -73.807259 -53.006638 11.007083 -99.892509 -67.110123 -75.852303 5.863835 -0.173112 -46.856457 -2.031265 8.406249 -0.068363 89.383835 72.278870 7.982305 150.493607 30.519230 -5.854221 -80.343452 0.173112 0.175734 -19.657539 3.082065 0.569726 37.431625 -4.111417 -3.001562 -18.009268 1.329371 1.724296 -19.868465 -6.819617 0.423511 37.687271 4.073399 2.826447 -18.129555 -1.425024 1.764897 
1.012804 40.205982 -0.934973 0.000000 0.000000 0.000000 12.356844 6.178422 0.000000 1.029737 3.089211 0.000000 19.000618 4.339859 0.000000 -31.629929 5.135479 0.300480 2.021926 -13.478750 -0.063351 -73.826233 -53.046593 10.981642 -99.898773 -67.119667 -75.852303 5.866935 -0.173112 -46.855515 -2.031264 8.379434 -0.068363 89.410027 72.310341 7.982525 150.493896 30.555103 -5.854053 -76.123077 0.173112 0.175734 -19.676533 3.086832 0.570040 37.450485 -4.116269 -3.014377 -17.999081 1.334868 1.725054 -19.869061 -6.817822 0.423232 37.696659 4.074522 2.837290 -18.138712 -1.433418 1.763422 
1.012010 40.204315 -0.936267 0.000000 0.000000 0.000000 12.337016 6.168508 0.000000 1.028085 3.084254 0.000000 19.032993 4.601086 0.000000 -31.520832 5.205986 0.272982 2.021925 -13.434943 -0.063351 -73.845207 -53.045044 10.956201 -99.785172 -67.017754 -75.852303 5.871359 -0.173112 -46.854172 -2.031263 8.340664 -0.068363 89.447891 72.340698 7.982843 150.494186 30.591494 -5.853811 -71.902695 0.173112 0.175734 -19.685661 3.091576 0.569902 37.470367 -4.113850 -3.015196 -18.008268 1.343298 1.716744 -19.921560 -6.817762 0.431836 37.735592 4.078460 2.841711 -18.128590 -1.437683 1.762857 
1.011024 40.202534 -0.937566 0.000000 0.000000 0.000000 12.312402 6.156201 0.000000 1.026034 3.078100 0.000000 19.066517 4.902044 0.000000 -31.408974 5.263233 0.241069 2.021924 -13.380561 -0.063351 -73.864182 -52.994450 10.930759 -99.515602 -66.768799 -75.852303 5.876756 -0.173112 -46.852524 -2.031262 8.292534 -0.068363 89.494896 72.369659 7.983239 150.494476 30.627701 -5.853511 -67.682320 0.173112 0.175734 -19.733667 3.100090 0.571104 37.509758 -4.116610 -3.009547 -17.998810 1.338608 1.715883 -19.880484 -6.817216 0.432537 37.705582 4.088073 2.832715 -18.138338 -1.438337 1.752862 
1.009900 40.200726 -0.938830 0.000000 0.000000 0.000000 12.284328 6.142164 0.000000 1.023694 3.071082 0.000000 19.100008 5.228702 0.000000 -31.296942 5.305154 0.206250 2.021924 -13.318535 -0.063351 -73.883156 -52.887272 10.905318 -99.069969 -66.366333 -76.008949 5.882808 -0.173112 -46.850677 -2.031260 8.237638 -0.068362 89.548515 72.396957 7.983690 150.494781 30.663023 -5.853169 -71.826324 0.173112 0.175734 -19.685551 3.097427 0.559525 37.470314 -4.118086 -3.006844 -18.008507 1.339954 1.706445 -19.881432 -6.814360 0.432092 37.706146 4.081931 2.830753 -18.138569 -1.435338 1.753343 
